<?xml version="1.0" encoding="utf-8"?><svg fill="none" viewBox="0 0 500 500" xmlns="http://www.w3.org/2000/svg"><defs /><g opacity="0" id="Tab"><animate repeatCount="indefinite" attributeName="opacity" dur="0.6666666666666666s" begin="0s" calcMode="spline" values="0; 1" keyTimes="0; 1" keySplines="0 0 1 1" fill="freeze" /><g transform="translate(250,450)"><animateTransform repeatCount="indefinite" type="translate" attributeName="transform" dur="0.667s" begin="0s" calcMode="spline" values="250 450; 250 250" keyTimes="0; 1" keySplines="0.333 0 0 1" fill="freeze" /><g transform="scale(1,1) translate(0,0)"><g id="Tab"><path fill="#d9dce1" fill-opacity="1" d="M145.722,-159.6L-145.722,-159.6C-153.355,-159.6,-159.6,-153.355,-159.6,-145.722L-159.6,145.722C-159.6,153.355,-153.355,159.6,-145.722,159.6L145.722,159.6C153.355,159.6,159.6,153.355,159.6,145.722L159.6,-145.722C159.6,-153.355,153.355,-159.6,145.722,-159.6Z" /></g></g></g></g><g id="Tab"><g transform="translate(250,450)"><animateTransform repeatCount="indefinite" type="translate" attributeName="transform" dur="0.667s" begin="0s" calcMode="spline" values="250 450; 250 250" keyTimes="0; 1" keySplines="0.333 0 0 1" fill="freeze" /><g transform="scale(1,1) translate(0,0)"><g opacity="0" id="Top Button"><animate repeatCount="indefinite" attributeName="opacity" dur="0.6666666666666666s" begin="0s" calcMode="spline" values="0; 1" keyTimes="0; 1" keySplines="0 0 1 1" fill="freeze" /><g transform="translate(-97.148,-124.904) scale(1,1) translate(-152.852,-125.096)"><g id="Group 3" transform="matrix(1,0,0,1,180.609,125.096)"><rect height="13.878" width="13.878" y="0" x="0" fill="#ffffff" fill-opacity="1" /></g><g id="Group 2" transform="matrix(1,0,0,1,152.852,125.096)"><rect height="13.878" width="13.878" y="0" x="0" fill="#ffffff" fill-opacity="1" /></g><g id="Group 1" transform="matrix(1,0,0,1,125.096,125.096)"><rect height="13.878" width="13.878" y="0" x="0" fill="#ffffff" fill-opacity="1" /></g></g></g></g></g></g><g id="Tab"><g transform="translate(250,450)"><animateTransform repeatCount="indefinite" type="translate" attributeName="transform" dur="0.667s" begin="0s" calcMode="spline" values="250 450; 250 250" keyTimes="0; 1" keySplines="0.333 0 0 1" fill="freeze" /><g transform="scale(1,1) translate(0,0)"><g opacity="0" id="Use icon"><animate repeatCount="indefinite" attributeName="opacity" dur="0.6666666666666666s" begin="0s" calcMode="spline" values="0; 1" keyTimes="0; 1" keySplines="0 0 1 1" fill="freeze" /><g transform="translate(0,-55.513) scale(1,1) translate(-250,-194.487)"><g id="Group 3" transform="matrix(1,0,0,1,250,194.487)"><path fill="#56aaff" fill-opacity="1" d="M0,-41.635C-22.899,-41.635,-41.635,-22.899,-41.635,0C-41.635,22.899,-22.899,41.635,0,41.635C22.899,41.635,41.635,22.899,41.635,0C41.635,-23.593,22.899,-41.635,0,-41.635Z" /></g><g id="Group 2" transform="matrix(1,0,0,1,250,188.936)"><path fill="#ffffff" fill-opacity="1" d="M0,-16.654C9.198,-16.654,16.654,-9.198,16.654,0C16.654,9.198,9.198,16.654,0,16.654C-9.198,16.654,-16.654,9.198,-16.654,0C-16.654,-9.198,-9.198,-16.654,0,-16.654Z" /></g><g id="Group 1" transform="matrix(1,0,0,1,250,223.284)"><path fill="#0478ed" fill-opacity="1" d="M0,12.837C10.409,12.837,19.43,9.368,27.063,2.429C24.287,-8.674,13.184,-12.837,0,-12.837C-13.184,-12.837,-24.287,-8.674,-27.063,2.429C-20.124,9.368,-10.409,12.837,0,12.837Z" /></g></g></g></g></g></g><g opacity="0" visibility="hidden" id="User name Box"><animate repeatCount="indefinite" begin="0.167s" calcMode="discrete" fill="freeze" dur="10s" values="visible; visible" keyTimes="0; 1" attributeName="visibility" /><animate repeatCount="indefinite" attributeName="opacity" dur="0.6666666666666666s" begin="0.16666666666666666s" calcMode="spline" values="0; 1" keyTimes="0; 1" keySplines="0.333 0 0 1" fill="freeze" /><g transform="translate(250,370.817)"><animateTransform repeatCount="indefinite" type="translate" attributeName="transform" dur="0.667s" begin="0.167s" calcMode="spline" values="250 370.817; 250 270.817" keyTimes="0; 1" keySplines="0.333 0 0 1" fill="freeze" /><g transform="scale(1,1) translate(0,0)"><g id="User name Box"><rect height="27.757" width="152.661" y="0" x="0" fill="#ffffff" fill-opacity="1" /></g></g></g></g><g opacity="0" visibility="hidden" id="Password Box"><animate repeatCount="indefinite" begin="0.233s" calcMode="discrete" fill="freeze" dur="10s" values="visible; visible" keyTimes="0; 1" attributeName="visibility" /><animate repeatCount="indefinite" attributeName="opacity" dur="0.6666666666666666s" begin="0.23333333333333334s" calcMode="spline" values="0; 1" keyTimes="0; 1" keySplines="0.333 0 0 1" fill="freeze" /><g transform="translate(250,412.452)"><animateTransform repeatCount="indefinite" type="translate" attributeName="transform" dur="0.667s" begin="0.233s" calcMode="spline" values="250 412.452; 250 312.452" keyTimes="0; 1" keySplines="0.333 0 0 1" fill="freeze" /><g transform="scale(1,1) translate(0,0)"><g id="Password Box"><path fill="#ffffff" fill-opacity="1" d="M-76.33,-13.878L76.33,-13.878L76.33,13.878L-76.33,13.878L-76.33,-13.878Z" /></g></g></g></g><g opacity="0" visibility="hidden" id="Login & Sign up Button"><animate repeatCount="indefinite" begin="0.3s" calcMode="discrete" fill="freeze" dur="10s" values="visible; visible" keyTimes="0; 1" attributeName="visibility" /><animate repeatCount="indefinite" attributeName="opacity" dur="0.5666666666666667s" begin="0.4s" calcMode="spline" values="0; 1" keyTimes="0; 1" keySplines="0.333 0 0 1" fill="freeze" /><g transform="translate(250,461.026)"><animateTransform repeatCount="indefinite" type="translate" attributeName="transform" dur="2.333s" begin="0.3s" calcMode="spline" values="250 461.026; 250 361.026; 250 361.026; 250 366.026; 250 361.026" keyTimes="0; 0.286; 0.857; 0.929; 1" keySplines="0.333 0 0 1; 0 0 1 1; 0.333 0 0.667 1; 0.333 0 0.667 1" fill="freeze" /><g transform="scale(1,1)"><animateTransform repeatCount="indefinite" type="scale" attributeName="transform" dur="0.333s" begin="2.3s" calcMode="spline" values="1 1; 0.95 0.95; 1 1" keyTimes="0; 0.5; 1" keySplines="0.333 0 0.667 1; 0.333 0 0.667 1" fill="freeze" /><g transform="translate(0,0)"><g id="Login & Sign up Button"><path fill="#56aaff" fill-opacity="1" d="M34.696,13.878L-34.696,13.878C-42.329,13.878,-48.574,7.633,-48.574,0L-48.574,0C-48.574,-7.633,-42.329,-13.878,-34.696,-13.878L34.696,-13.878C42.329,-13.878,48.574,-7.633,48.574,0L48.574,0C48.574,7.633,42.329,13.878,34.696,13.878Z" /></g></g></g></g></g><g opacity="0" visibility="hidden" id="User name"><animate repeatCount="indefinite" begin="1s" calcMode="discrete" fill="freeze" dur="9s" values="visible; visible" keyTimes="0; 1" attributeName="visibility" /><animate repeatCount="indefinite" attributeName="opacity" dur="0.6666666666666666s" begin="0s" calcMode="spline" values="0; 1" keyTimes="0; 1" keySplines="0 0 1 1" fill="freeze" /><g transform="translate(183.429,270.817)"><g transform="scale(0,1)"><animateTransform repeatCount="indefinite" type="scale" attributeName="transform" dur="1s" begin="1s" calcMode="spline" values="0 1; 1 1" keyTimes="0; 1" keySplines="0.333 0 0 1" fill="freeze" /><g transform="translate(55.929,0)"><g id="User name"><rect height="9.6" width="111.857" y="0" x="0" fill="#56aaff" fill-opacity="1" /></g></g></g></g></g><g transform="matrix(1,0,0,1,0,0)" visibility="hidden" id="Group 1 :M"><animate repeatCount="indefinite" begin="1.667s" calcMode="discrete" fill="freeze" dur="10.467s" values="visible; visible" keyTimes="0; 1" attributeName="visibility" /><g opacity="0"><animate repeatCount="indefinite" attributeName="opacity" dur="10.066666666666666s" begin="1.6333333333333333s" calcMode="spline" values="0; 1; 1; 1; 0" keyTimes="0; 0.003; 0.07; 0.997; 1" keySplines="0 0 1 1; 0 0 1 1; 0 0 1 1; 0 0 1 1" fill="freeze" /><g id="Group 8" transform="translate(187.874,313.27) translate(-187.874,-313.27)"><g id="Group 8" transform="matrix(1,0,0,1,187.874,313.27)"><path fill="#56aaff" fill-opacity="1" d="M2.603,-3.021L0.568,-0.343L0.568,-0.3L3.803,-0.729L3.803,0.729L0.568,0.343L0.568,0.386L2.625,2.956L1.275,3.728L-0.011,0.729L-0.054,0.729L-1.446,3.749L-2.667,2.978L-0.632,0.364L-0.632,0.321L-3.803,0.729L-3.803,-0.729L-0.653,-0.321L-0.653,-0.364L-2.667,-2.978L-1.36,-3.728L-0.032,-0.75L0.011,-0.75L1.317,-3.749L2.603,-3.021Z" /></g></g></g><g opacity="0"><animate repeatCount="indefinite" attributeName="opacity" dur="10.066666666666666s" begin="1.7s" calcMode="spline" values="0; 1; 1; 1; 0" keyTimes="0; 0.003; 0.07; 0.997; 1" keySplines="0 0 1 1; 0 0 1 1; 0 0 1 1; 0 0 1 1" fill="freeze" /><g id="Group 7" transform="translate(196.767,313.27) translate(-196.767,-313.27)"><g id="Group 7" transform="matrix(1,0,0,1,196.767,313.27)"><path fill="#56aaff" fill-opacity="1" d="M2.603,-3.021L0.568,-0.343L0.568,-0.3L3.803,-0.729L3.803,0.729L0.568,0.343L0.568,0.386L2.625,2.956L1.275,3.728L-0.011,0.729L-0.054,0.729L-1.446,3.749L-2.667,2.978L-0.632,0.364L-0.632,0.321L-3.803,0.729L-3.803,-0.729L-0.653,-0.321L-0.653,-0.364L-2.667,-2.978L-1.36,-3.728L-0.032,-0.75L0.011,-0.75L1.317,-3.749L2.603,-3.021Z" /></g></g></g><g opacity="0"><animate repeatCount="indefinite" attributeName="opacity" dur="10.066666666666666s" begin="1.7666666666666666s" calcMode="spline" values="0; 1; 1; 1; 0" keyTimes="0; 0.003; 0.07; 0.997; 1" keySplines="0 0 1 1; 0 0 1 1; 0 0 1 1; 0 0 1 1" fill="freeze" /><g id="Group 6" transform="translate(205.66,313.27) translate(-205.66,-313.27)"><g id="Group 6" transform="matrix(1,0,0,1,205.66,313.27)"><path fill="#56aaff" fill-opacity="1" d="M2.603,-3.021L0.568,-0.343L0.568,-0.3L3.803,-0.729L3.803,0.729L0.568,0.343L0.568,0.386L2.625,2.956L1.275,3.728L-0.011,0.729L-0.054,0.729L-1.446,3.749L-2.667,2.978L-0.632,0.364L-0.632,0.321L-3.803,0.729L-3.803,-0.729L-0.653,-0.321L-0.653,-0.364L-2.667,-2.978L-1.36,-3.728L-0.032,-0.75L0.011,-0.75L1.317,-3.749L2.603,-3.021Z" /></g></g></g><g opacity="0"><animate repeatCount="indefinite" attributeName="opacity" dur="10.066666666666666s" begin="1.8333333333333333s" calcMode="spline" values="0; 1; 1; 1; 0" keyTimes="0; 0.003; 0.07; 0.997; 1" keySplines="0 0 1 1; 0 0 1 1; 0 0 1 1; 0 0 1 1" fill="freeze" /><g id="Group 5" transform="translate(214.553,313.27) translate(-214.553,-313.27)"><g id="Group 5" transform="matrix(1,0,0,1,214.553,313.27)"><path fill="#56aaff" fill-opacity="1" d="M2.603,-3.021L0.568,-0.343L0.568,-0.3L3.803,-0.729L3.803,0.729L0.568,0.343L0.568,0.386L2.625,2.956L1.275,3.728L-0.011,0.729L-0.054,0.729L-1.446,3.749L-2.667,2.978L-0.632,0.364L-0.632,0.321L-3.803,0.729L-3.803,-0.729L-0.653,-0.321L-0.653,-0.364L-2.667,-2.978L-1.36,-3.728L-0.032,-0.75L0.011,-0.75L1.317,-3.749L2.603,-3.021Z" /></g></g></g><g opacity="0"><animate repeatCount="indefinite" attributeName="opacity" dur="10.066666666666666s" begin="1.9s" calcMode="spline" values="0; 1; 1; 1; 0" keyTimes="0; 0.003; 0.07; 0.997; 1" keySplines="0 0 1 1; 0 0 1 1; 0 0 1 1; 0 0 1 1" fill="freeze" /><g id="Group 4" transform="translate(223.445,313.27) translate(-223.445,-313.27)"><g id="Group 4" transform="matrix(1,0,0,1,223.445,313.27)"><path fill="#56aaff" fill-opacity="1" d="M2.603,-3.021L0.568,-0.343L0.568,-0.3L3.803,-0.729L3.803,0.729L0.568,0.343L0.568,0.386L2.625,2.956L1.275,3.728L-0.011,0.729L-0.054,0.729L-1.446,3.749L-2.667,2.978L-0.632,0.364L-0.632,0.321L-3.803,0.729L-3.803,-0.729L-0.653,-0.321L-0.653,-0.364L-2.667,-2.978L-1.36,-3.728L-0.032,-0.75L0.011,-0.75L1.317,-3.749L2.603,-3.021Z" /></g></g></g><g opacity="0"><animate repeatCount="indefinite" attributeName="opacity" dur="10.066666666666666s" begin="1.9666666666666666s" calcMode="spline" values="0; 1; 1; 1; 0" keyTimes="0; 0.003; 0.07; 0.997; 1" keySplines="0 0 1 1; 0 0 1 1; 0 0 1 1; 0 0 1 1" fill="freeze" /><g id="Group 3" transform="translate(232.338,313.27) translate(-232.338,-313.27)"><g id="Group 3" transform="matrix(1,0,0,1,232.338,313.27)"><path fill="#56aaff" fill-opacity="1" d="M2.603,-3.021L0.568,-0.343L0.568,-0.3L3.803,-0.729L3.803,0.729L0.568,0.343L0.568,0.386L2.625,2.956L1.275,3.728L-0.011,0.729L-0.054,0.729L-1.446,3.749L-2.667,2.978L-0.632,0.364L-0.632,0.321L-3.803,0.729L-3.803,-0.729L-0.653,-0.321L-0.653,-0.364L-2.667,-2.978L-1.36,-3.728L-0.032,-0.75L0.011,-0.75L1.317,-3.749L2.603,-3.021Z" /></g></g></g><g opacity="0"><animate repeatCount="indefinite" attributeName="opacity" dur="10.066666666666666s" begin="2.033333333333333s" calcMode="spline" values="0; 1; 1; 1; 0" keyTimes="0; 0.003; 0.07; 0.997; 1" keySplines="0 0 1 1; 0 0 1 1; 0 0 1 1; 0 0 1 1" fill="freeze" /><g id="Group 2" transform="translate(241.231,313.27) translate(-241.231,-313.27)"><g id="Group 2" transform="matrix(1,0,0,1,241.231,313.27)"><path fill="#56aaff" fill-opacity="1" d="M2.603,-3.021L0.568,-0.343L0.568,-0.3L3.802,-0.729L3.802,0.729L0.568,0.343L0.568,0.386L2.625,2.956L1.275,3.728L-0.01,0.729L-0.053,0.729L-1.446,3.749L-2.667,2.978L-0.632,0.364L-0.632,0.321L-3.802,0.729L-3.802,-0.729L-0.653,-0.321L-0.653,-0.364L-2.667,-2.978L-1.36,-3.728L-0.032,-0.75L0.011,-0.75L1.318,-3.749L2.603,-3.021Z" /></g></g></g><g opacity="0"><animate repeatCount="indefinite" attributeName="opacity" dur="10.066666666666666s" begin="2.1s" calcMode="spline" values="0; 1; 1; 1; 0" keyTimes="0; 0.003; 0.07; 0.997; 1" keySplines="0 0 1 1; 0 0 1 1; 0 0 1 1; 0 0 1 1" fill="freeze" /><g id="Group 1" transform="translate(250.124,313.27) translate(-250.124,-313.27)"><g id="Group 1" transform="matrix(1,0,0,1,250.124,313.27)"><path fill="#56aaff" fill-opacity="1" d="M2.603,-3.021L0.567,-0.343L0.567,-0.3L3.803,-0.729L3.803,0.729L0.567,0.343L0.567,0.386L2.624,2.956L1.274,3.728L-0.011,0.729L-0.054,0.729L-1.446,3.749L-2.667,2.978L-0.632,0.364L-0.632,0.321L-3.803,0.729L-3.803,-0.729L-0.653,-0.321L-0.653,-0.364L-2.667,-2.978L-1.36,-3.728L-0.032,-0.75L0.011,-0.75L1.317,-3.749L2.603,-3.021Z" /></g></g></g></g></svg>